<svg width="140" height="149" viewBox="0 0 140 149" fill="none" xmlns="http://www.w3.org/2000/svg">
<path d="M131.734 112.06C137.096 101.919 139.843 90.4798 139.655 78.9464C139.41 62.54 133.258 46.7357 122.345 34.4685C111.715 22.4647 97.2088 14.5437 81.461 12.1355C82.6275 9.06868 83.6058 4.64723 79.7112 0.752595C79.3913 0.432745 78.9586 0.244598 78.507 0.244598C78.0555 0.244598 77.6228 0.41393 77.3029 0.73378C76.9831 1.05363 76.7949 1.48637 76.7949 1.93792C76.7949 2.38947 76.9642 2.82221 77.3029 3.14206C79.4478 5.28693 79.6547 7.77047 77.9614 11.6839C75.5531 11.4393 73.1637 11.3076 70.8683 11.3076C70.5861 11.3076 70.3039 11.3076 70.0216 11.3076C52.0536 11.571 35.1768 18.7018 22.4581 31.4205C20.6896 30.7996 18.7705 30.4986 16.7761 30.4986C12.5616 30.4986 8.85512 31.9285 5.71307 34.7507C2.57102 37.5165 0.971771 40.8843 0.971771 44.7977C0.971771 48.0903 2.13828 50.9501 4.41486 53.3208C5.18626 54.111 6.03292 54.7883 6.95484 55.3151C3.85042 63.9135 2.34524 71.9661 2.34524 79.9812C2.34524 117.855 33.1449 148.655 71.0188 148.655C86.1646 148.655 101.085 143.556 113.051 134.262C115.384 135.447 117.98 136.049 120.746 136.049C124.96 136.049 128.667 134.619 131.809 131.797C134.951 129.031 136.55 125.663 136.55 121.75C136.55 118.457 135.384 115.597 133.107 113.227C132.674 112.832 132.223 112.418 131.734 112.06ZM77.8862 98.2502C77.8862 98.8147 77.6416 99.6801 77.0959 100.978L72.3923 111.119C70.5861 114.807 68.5729 116.613 66.2399 116.613C63.6246 116.613 63.286 115.447 63.286 114.412C63.286 113.791 63.5494 112.888 64.0762 111.703L68.4036 102.54C70.3227 98.2502 72.524 96.0865 74.9134 96.0865C77.5475 96.0677 77.8862 97.2342 77.8862 98.2502ZM109.57 114.036L114.819 102.295C115.497 100.941 115.835 99.5861 115.835 98.2502C115.835 94.9389 113.521 92.9445 109.645 92.9445C107.632 92.9445 105.675 94.0357 103.813 96.1806C103.079 94.0357 101.273 92.9445 98.4318 92.9445C98.2625 92.9445 98.0931 92.9445 97.905 92.9633C96.7761 93.095 95.7037 93.4525 94.7253 94.0734C94.7441 93.7723 94.6689 93.4901 94.4995 93.2643C94.2549 92.9069 93.8034 92.6999 93.3142 92.6999C92.7498 92.6999 92.0348 93.0009 91.6773 93.81L84.095 110.386C82.1759 114.525 79.9746 116.613 77.5851 116.613C75.8354 116.613 75.0075 115.936 75.0075 114.487C75.0075 113.866 75.2521 113.001 75.7977 111.684L83.1355 95.6726C83.5682 94.5437 82.9849 93.7347 82.27 93.4525C82.063 93.3772 81.8561 93.3208 81.6491 93.3208C80.9718 93.3208 80.4073 93.7159 80.1251 94.3744L79.7864 95.0705C78.7893 93.6406 77.2088 92.9445 74.9511 92.9445C71.0753 92.9445 68.0085 95.5409 65.5814 100.884L61.1035 110.348C60.9718 110.593 60.8777 110.837 60.7648 111.119C58.9774 114.751 56.889 116.595 54.5936 116.595C52.8438 116.595 52.016 115.917 52.016 114.468C52.016 113.848 52.2606 112.982 52.8062 111.665L57.2088 102.277C57.8862 100.922 58.2248 99.5484 58.2248 98.2314C58.2248 96.6133 57.698 95.2587 56.7008 94.318C55.7225 93.396 54.2926 92.9069 52.5804 92.9069C52.3735 92.9069 52.1853 92.9069 51.9595 92.9257C49.9464 93.1326 48.0085 94.2615 46.1834 96.2559C45.4685 94.1486 43.5118 92.9069 40.8777 92.9069C40.6707 92.9069 40.4638 92.9069 40.238 92.9257C39.1844 93.0574 38.1308 93.4149 37.0771 94.0169C37.0959 93.7347 37.0207 93.4713 36.8702 93.2455C36.6256 92.8881 36.1928 92.6623 35.7225 92.6623C35.0075 92.6623 34.3866 93.1326 34.0292 93.904L23.1543 117.309C22.7215 118.175 22.9661 118.777 23.1543 119.059C23.4177 119.436 23.8692 119.661 24.3584 119.661C24.4149 119.661 24.4713 119.661 24.5277 119.661C25.1486 119.605 25.6754 119.191 25.9388 118.57L33.634 102.408L34.142 101.373C36.0235 97.9868 38.0555 96.2182 40.3509 96.0113C40.5014 95.9925 40.6519 95.9925 40.8024 95.9925C41.5174 95.9925 42.1383 96.1994 42.571 96.5945C43.0038 96.9896 43.2483 97.5541 43.2483 98.2314C43.2483 98.8523 42.9849 99.7554 42.4769 100.941L34.7253 117.78C34.5372 118.325 34.556 118.702 34.7441 119.04C34.9134 119.36 35.2333 119.548 35.7225 119.661C35.8354 119.68 35.9294 119.68 36.0047 119.68C36.9642 119.68 37.7168 119.153 38.1119 118.175L45.4685 102.258L45.7695 101.599C47.5381 98.1185 49.6642 96.2371 52.0348 96.0301C52.1853 96.0113 52.3358 96.0113 52.4864 96.0113C53.2013 96.0113 53.8222 96.2182 54.2549 96.6133C54.6877 97.0085 54.9323 97.5729 54.9323 98.2502C54.9323 98.8711 54.6689 99.7742 54.1609 100.96L49.7582 110.348C49.0621 111.722 48.7234 113.076 48.7234 114.468C48.7234 117.893 50.7366 119.699 54.556 119.699C56.7385 119.699 58.6764 118.777 60.3321 116.99C60.4073 116.914 60.4826 116.839 60.539 116.745C61.4233 118.627 63.4741 119.699 66.2399 119.699C68.4036 119.699 70.3791 118.721 72.1101 116.783C72.9191 118.721 74.7629 119.699 77.6039 119.699C79.8429 119.68 81.8184 118.796 83.4741 117.065C85.1486 115.24 86.3528 113.452 87.1618 111.609L91.7902 101.486C93.5588 98.1562 95.7037 96.2747 97.9991 96.0677C98.1496 96.0489 98.3001 96.0489 98.4506 96.0489C99.1656 96.0489 99.7864 96.2559 100.219 96.651C100.652 97.0461 100.897 97.6105 100.897 98.2879C100.897 98.9087 100.633 99.8119 100.125 100.997L92.5616 117.479C92.3735 118.024 92.3923 118.401 92.5804 118.739C92.7498 119.059 93.0696 119.247 93.5588 119.36C93.6717 119.379 93.7658 119.379 93.841 119.379C94.8006 119.379 95.5531 118.852 95.9483 117.874L103.117 102.333L103.493 101.58C105.299 97.8928 107.312 96.0865 109.645 96.0865C112.261 96.0865 112.599 97.2531 112.599 98.2879C112.599 98.9087 112.336 99.8118 111.809 101.016L111.79 101.091C111.696 101.223 111.602 101.373 111.527 101.524L107.764 110.273C106.278 113.264 104.866 117.554 104.866 119.078C104.791 119.68 104.791 120.508 104.791 121.656C104.791 125.927 106.39 129.332 109.683 132.079C109.777 132.173 109.89 132.248 110.003 132.324C98.8081 140.677 84.9605 145.268 71 145.268C35.0075 145.268 5.73188 115.992 5.73188 80C5.73188 72.4177 7.1618 64.7601 10.1157 56.5757C10.9812 56.7639 11.8843 56.8768 12.7874 56.8768C16.6444 56.8768 19.8429 55.1834 21.3669 52.3612C21.4421 52.2484 21.5174 52.1355 21.5738 52.0226L21.6491 51.8344C21.7055 51.7215 21.762 51.5898 21.8184 51.4393C21.8372 51.3641 21.8561 51.2888 21.8561 51.2136C22.4393 49.238 22.2135 47.4318 21.1787 46.1336C20.3133 45.0423 18.9962 44.4403 17.4722 44.4403C17.1712 44.4403 16.8514 44.4591 16.5315 44.5155C13.2389 45.0235 10.1721 47.8834 8.10253 52.3989C5.67544 50.7996 4.22671 47.9962 4.22671 44.8166C4.22671 41.6369 5.46848 39.0781 8.00846 36.952C10.6613 34.8072 13.54 33.7724 16.7573 33.7724C18.5635 33.7724 20.3133 34.111 21.9501 34.7695C22.1383 34.9012 22.3641 34.9953 22.5898 35.0329C23.6435 35.5221 24.6406 36.1618 25.5814 36.952C28.1402 39.0216 29.4384 41.7121 29.4384 44.9671C29.4384 47.7516 28.9304 50.3104 27.9144 52.5494L22.5522 64.6096C22.2324 65.4186 22.2135 66.0207 22.4958 66.4346C22.7215 66.7733 23.1355 66.9614 23.6999 66.9614C24.5654 66.9614 25.3368 66.4158 25.8824 65.3998L29.7394 56.3311C33.3518 48.4102 39.0527 43.2738 44.2832 43.2738C47.0301 43.2738 48.7987 44.7789 48.7987 47.112C48.7987 48.0151 48.6293 48.937 48.3095 49.8589L44.6971 57.5917C44.0198 59.0028 43.6811 60.3575 43.6811 61.7498C43.6811 65.174 45.6943 66.9802 49.5136 66.9802C51.6961 66.9802 53.634 66.0583 55.2897 64.2709C55.3462 64.1957 55.4214 64.1204 55.4779 64.064C56.3622 65.9266 58.413 66.9991 61.1787 66.9991C63.3424 66.9991 65.318 66.0207 67.0489 64.0828C67.8579 66.0207 69.683 66.9991 72.5052 66.9991C74.6877 66.9991 76.6256 66.0771 78.2813 64.2897C78.3565 64.2145 78.4318 64.1204 78.507 64.0452C79.3913 65.9266 81.4421 66.9991 84.2079 66.9991C85.0546 66.9991 85.8636 66.8485 86.6726 66.5287L84.4901 71.3264L84.302 71.7027C83.8504 72.6435 83.6999 72.9445 83.2483 73.5466C82.571 73.2079 81.8749 72.8692 81.1975 72.5306C79.9182 71.8909 78.5823 71.2512 77.2465 70.6115C77.0207 70.4986 76.7761 70.4421 76.5315 70.4421C75.873 70.4421 75.2709 70.8184 74.9887 71.4205C74.5936 72.2672 74.9511 73.2832 75.7977 73.6971C77.1336 74.318 78.4882 74.9953 79.6924 75.5785C85.5061 78.4384 91.508 81.4111 97.1712 81.4111C98.1119 81.4111 98.8833 80.6397 98.8833 79.699C98.8833 78.7582 98.1119 77.9868 97.1712 77.9868C93.4835 77.9868 89.5513 76.444 86.1834 74.9012C86.8043 74.0169 87.0489 73.5089 87.6133 72.3236L87.8956 71.7404L101.198 42.6717C101.63 41.5428 101.047 40.7338 100.332 40.4516C100.125 40.3763 99.9182 40.3387 99.7112 40.3387C99.0339 40.3387 98.4694 40.7338 98.1872 41.3923L90.7742 57.6858C88.8551 61.825 86.6538 63.9135 84.2643 63.9135C81.6491 63.9135 81.3104 62.7469 81.3104 61.7121C81.3104 61.0912 81.5738 60.1882 82.0818 59.0028L89.5889 42.6905C90.0216 41.5616 89.4384 40.7526 88.7234 40.4704C88.5165 40.3951 88.3095 40.3387 88.0837 40.3387C87.4064 40.3387 86.842 40.7338 86.5597 41.3923L79.0715 57.667C78.9398 57.9304 78.8457 58.175 78.7328 58.4196C76.9454 62.0508 74.857 63.8946 72.5428 63.8946C70.793 63.8946 69.9652 63.2173 69.9652 61.7686C69.9652 61.1477 70.2098 60.2822 70.7554 58.9652L78.1872 42.6529C78.6199 41.524 78.0367 40.715 77.3217 40.4327C77.1148 40.3575 76.9078 40.301 76.7008 40.301C76.0235 40.301 75.4591 40.6961 75.1769 41.3547L74.8382 42.0508C73.841 40.6209 72.2606 39.9247 70.0028 39.9247C66.127 39.9247 63.0602 42.5212 60.6331 47.8645L56.0611 57.6294C55.8918 57.9868 55.7225 58.3631 55.5908 58.7394C53.841 62.1449 51.809 63.8758 49.5701 63.8758C47.8203 63.8758 46.9925 63.1985 46.9925 61.7498C46.9925 61.1289 47.2371 60.2634 47.7827 58.9464L51.5456 50.8749C52.1289 49.6143 52.4111 48.2785 52.4111 46.7733C52.4111 42.8598 49.0056 39.9059 44.4901 39.9059C40.9341 39.9059 36.381 42.333 32.7686 46.1524C32.7686 45.7949 32.7686 45.4186 32.7686 44.9859C32.7686 40.715 31.1693 37.3095 27.8579 34.5626C27.2182 34.0169 26.5033 33.4901 25.7695 33.0386C37.7356 21.4864 53.4647 14.9953 70.0969 14.7507C70.4167 14.7507 70.7366 14.7507 71.0376 14.7507C72.7498 14.7507 74.556 14.826 76.381 14.9765C76.0047 15.6726 76.3057 15.0894 75.7601 16.0301C72.1289 22.3895 68.0085 29.5955 74.2173 35.8043C74.5183 36.1054 74.9699 36.2935 75.4214 36.2935C75.873 36.2935 76.3245 36.1242 76.6256 35.8043C76.9454 35.4845 77.1336 35.0517 77.1336 34.6002C77.1336 34.1486 76.9642 33.7159 76.6256 33.3961C72.2606 29.031 75.4026 23.5372 78.714 17.7234C79.4102 16.5193 79.3725 16.6322 80.031 15.3904C111.64 19.7742 135.817 47.1119 136.287 79.0216C136.456 89.953 133.86 100.828 128.78 110.442C127.519 109.991 126.165 109.765 124.735 109.765C121.085 109.765 117.943 111.326 116.343 113.923C116.212 114.055 116.118 114.167 116.042 114.318C114.725 116.82 115.497 118.627 116.08 119.454C117.04 120.828 118.752 121.618 120.802 121.618C121.141 121.618 121.48 121.599 121.818 121.562C125.262 121.129 128.366 118.739 130.379 115.014C132.242 116.651 133.295 119.116 133.295 121.806C133.295 124.986 132.054 127.545 129.495 129.671C126.842 131.816 123.963 132.85 120.746 132.85C116.23 132.85 113.07 130.63 111.922 129.671C109.363 127.601 108.065 124.911 108.065 121.656C108.046 118.852 108.554 116.294 109.57 114.036ZM17.0395 47.8645C17.1712 47.8457 17.3217 47.8269 17.4534 47.8269C17.9238 47.8269 18.3001 47.9774 18.507 48.222C18.8833 48.6924 18.8457 49.6519 18.413 50.7244C17.397 52.6999 15.5155 53.6783 12.7874 53.6783C12.2982 53.6783 11.809 53.6406 11.301 53.5466C13.1261 49.746 15.4591 48.1091 17.0395 47.8645ZM58.2248 61.6745C58.2248 61.0536 58.4882 60.1505 59.015 58.9464L63.4365 49.4826C65.3556 45.1929 67.5569 43.0292 69.9464 43.0292C72.5616 43.0292 72.9003 44.1957 72.9003 45.2305C72.9003 45.7949 72.6557 46.6604 72.1101 47.9586L67.3123 58.3819C65.5061 62.0696 63.4929 63.8758 61.1599 63.8758C58.5447 63.857 58.2248 62.6905 58.2248 61.6745ZM121.367 118.156C121.16 118.175 120.972 118.194 120.765 118.194C119.881 118.194 119.166 117.93 118.865 117.498C118.676 117.215 118.658 116.801 118.846 116.312L118.865 116.294C118.883 116.256 118.921 116.218 118.94 116.162C119.918 114.017 121.856 112.926 124.716 112.926C125.638 112.926 126.541 113.057 127.406 113.34C125.243 117.366 122.251 118.043 121.367 118.156Z" fill="#022B21"/>
</svg>
