<svg width="160" height="160" viewBox="0 0 160 160" fill="none" xmlns="http://www.w3.org/2000/svg">
<path d="M116.632 76.5569C116.143 76.5569 115.014 76.7451 115.014 78.4008C115.014 80.2634 114.167 81.9567 112.399 83.5748C110.649 85.2493 108.467 86.0583 105.701 86.0583C100.564 86.0583 95.0517 83.349 89.2004 80.4704C83.1797 77.5165 76.9708 74.4497 70.9878 74.4497C64.9483 74.4497 60.8843 77.7611 60.8843 82.6717C60.8843 87.2625 65.2305 90.2164 71.9661 90.2164C78.4008 90.2164 83.9135 88.1656 88.8429 83.9323C96.0866 87.5071 100.696 89.3133 105.701 89.3133C109.351 89.3133 112.38 88.1468 114.751 85.8702C117.121 83.5748 118.269 81.1289 118.269 78.3819C118.269 76.7451 117.121 76.5569 116.632 76.5569ZM70.969 77.7046C74.4685 77.7046 79.4167 79.2851 85.7009 82.3895C81.524 85.5315 76.8956 87.112 71.9473 87.112C67.1872 87.0367 64.1204 85.3057 64.1204 82.6717C64.1392 79.7554 66.9426 77.7046 70.969 77.7046Z" fill="#022B21"/>
<path d="M140.734 112.06C146.096 101.919 148.843 90.4798 148.655 78.9464C148.41 62.54 142.258 46.7357 131.345 34.4685C120.715 22.4647 106.209 14.5437 90.461 12.1355C91.6275 9.06868 92.6058 4.64723 88.7112 0.752595C88.3913 0.432745 87.9586 0.244598 87.507 0.244598C87.0555 0.244598 86.6228 0.41393 86.3029 0.73378C85.9831 1.05363 85.7949 1.48637 85.7949 1.93792C85.7949 2.38947 85.9642 2.82221 86.3029 3.14206C88.4478 5.28693 88.6547 7.77047 86.9614 11.6839C84.5531 11.4393 82.1637 11.3076 79.8683 11.3076C79.5861 11.3076 79.3039 11.3076 79.0216 11.3076C61.0536 11.571 44.1768 18.7018 31.4581 31.4205C29.6896 30.7996 27.7705 30.4986 25.7761 30.4986C21.5616 30.4986 17.8551 31.9285 14.7131 34.7507C11.571 37.5165 9.97177 40.8843 9.97177 44.7977C9.97177 48.0903 11.1383 50.9501 13.4149 53.3208C14.1863 54.111 15.0329 54.7883 15.9548 55.3151C12.8504 63.9135 11.3452 71.9661 11.3452 79.9812C11.3452 117.855 42.1449 148.655 80.0188 148.655C95.1646 148.655 110.085 143.556 122.051 134.262C124.384 135.447 126.98 136.049 129.746 136.049C133.96 136.049 137.667 134.619 140.809 131.797C143.951 129.031 145.55 125.663 145.55 121.75C145.55 118.457 144.384 115.597 142.107 113.227C141.674 112.832 141.223 112.418 140.734 112.06ZM86.8862 98.2502C86.8862 98.8147 86.6416 99.6801 86.0959 100.978L81.3923 111.119C79.5861 114.807 77.5729 116.613 75.2399 116.613C72.6246 116.613 72.286 115.447 72.286 114.412C72.286 113.791 72.5494 112.888 73.0762 111.703L77.4036 102.54C79.3227 98.2502 81.524 96.0865 83.9134 96.0865C86.5475 96.0677 86.8862 97.2342 86.8862 98.2502ZM118.57 114.036L123.819 102.295C124.497 100.941 124.835 99.5861 124.835 98.2502C124.835 94.9389 122.521 92.9445 118.645 92.9445C116.632 92.9445 114.675 94.0357 112.813 96.1806C112.079 94.0357 110.273 92.9445 107.432 92.9445C107.262 92.9445 107.093 92.9445 106.905 92.9633C105.776 93.095 104.704 93.4525 103.725 94.0734C103.744 93.7723 103.669 93.4901 103.5 93.2643C103.255 92.9069 102.803 92.6999 102.314 92.6999C101.75 92.6999 101.035 93.0009 100.677 93.81L93.095 110.386C91.1759 114.525 88.9746 116.613 86.5851 116.613C84.8354 116.613 84.0075 115.936 84.0075 114.487C84.0075 113.866 84.2521 113.001 84.7977 111.684L92.1355 95.6726C92.5682 94.5437 91.9849 93.7347 91.27 93.4525C91.063 93.3772 90.8561 93.3208 90.6491 93.3208C89.9718 93.3208 89.4073 93.7159 89.1251 94.3744L88.7864 95.0705C87.7893 93.6406 86.2088 92.9445 83.9511 92.9445C80.0753 92.9445 77.0085 95.5409 74.5814 100.884L70.1035 110.348C69.9718 110.593 69.8777 110.837 69.7648 111.119C67.9774 114.751 65.889 116.595 63.5936 116.595C61.8438 116.595 61.016 115.917 61.016 114.468C61.016 113.848 61.2606 112.982 61.8062 111.665L66.2088 102.277C66.8862 100.922 67.2248 99.5484 67.2248 98.2314C67.2248 96.6133 66.698 95.2587 65.7008 94.318C64.7225 93.396 63.2926 92.9069 61.5804 92.9069C61.3735 92.9069 61.1853 92.9069 60.9595 92.9257C58.9464 93.1326 57.0085 94.2615 55.1834 96.2559C54.4685 94.1486 52.5118 92.9069 49.8777 92.9069C49.6707 92.9069 49.4638 92.9069 49.238 92.9257C48.1844 93.0574 47.1308 93.4149 46.0771 94.0169C46.0959 93.7347 46.0207 93.4713 45.8702 93.2455C45.6256 92.8881 45.1928 92.6623 44.7225 92.6623C44.0075 92.6623 43.3866 93.1326 43.0292 93.904L32.1543 117.309C31.7215 118.175 31.9661 118.777 32.1543 119.059C32.4177 119.436 32.8692 119.661 33.3584 119.661C33.4149 119.661 33.4713 119.661 33.5277 119.661C34.1486 119.605 34.6754 119.191 34.9388 118.57L42.634 102.408L43.142 101.373C45.0235 97.9868 47.0555 96.2182 49.3509 96.0113C49.5014 95.9925 49.6519 95.9925 49.8024 95.9925C50.5174 95.9925 51.1383 96.1994 51.571 96.5945C52.0038 96.9896 52.2483 97.5541 52.2483 98.2314C52.2483 98.8523 51.9849 99.7554 51.4769 100.941L43.7253 117.78C43.5372 118.325 43.556 118.702 43.7441 119.04C43.9134 119.36 44.2333 119.548 44.7225 119.661C44.8354 119.68 44.9294 119.68 45.0047 119.68C45.9642 119.68 46.7168 119.153 47.1119 118.175L54.4685 102.258L54.7695 101.599C56.5381 98.1185 58.6642 96.2371 61.0348 96.0301C61.1853 96.0113 61.3358 96.0113 61.4864 96.0113C62.2013 96.0113 62.8222 96.2182 63.2549 96.6133C63.6877 97.0085 63.9323 97.5729 63.9323 98.2502C63.9323 98.8711 63.6689 99.7742 63.1609 100.96L58.7582 110.348C58.0621 111.722 57.7234 113.076 57.7234 114.468C57.7234 117.893 59.7366 119.699 63.556 119.699C65.7385 119.699 67.6764 118.777 69.3321 116.99C69.4073 116.914 69.4826 116.839 69.539 116.745C70.4233 118.627 72.4741 119.699 75.2399 119.699C77.4036 119.699 79.3791 118.721 81.1101 116.783C81.9191 118.721 83.7629 119.699 86.6039 119.699C88.8429 119.68 90.8184 118.796 92.4741 117.065C94.1486 115.24 95.3528 113.452 96.1618 111.609L100.79 101.486C102.559 98.1562 104.704 96.2747 106.999 96.0677C107.15 96.0489 107.3 96.0489 107.451 96.0489C108.166 96.0489 108.786 96.2559 109.219 96.651C109.652 97.0461 109.897 97.6105 109.897 98.2879C109.897 98.9087 109.633 99.8119 109.125 100.997L101.562 117.479C101.373 118.024 101.392 118.401 101.58 118.739C101.75 119.059 102.07 119.247 102.559 119.36C102.672 119.379 102.766 119.379 102.841 119.379C103.801 119.379 104.553 118.852 104.948 117.874L112.117 102.333L112.493 101.58C114.299 97.8928 116.312 96.0865 118.645 96.0865C121.261 96.0865 121.599 97.2531 121.599 98.2879C121.599 98.9087 121.336 99.8118 120.809 101.016L120.79 101.091C120.696 101.223 120.602 101.373 120.527 101.524L116.764 110.273C115.278 113.264 113.866 117.554 113.866 119.078C113.791 119.68 113.791 120.508 113.791 121.656C113.791 125.927 115.39 129.332 118.683 132.079C118.777 132.173 118.89 132.248 119.003 132.324C107.808 140.677 93.9605 145.268 80 145.268C44.0075 145.268 14.7319 115.992 14.7319 80C14.7319 72.4177 16.1618 64.7601 19.1157 56.5757C19.9812 56.7639 20.8843 56.8768 21.7874 56.8768C25.6444 56.8768 28.8429 55.1834 30.3669 52.3612C30.4421 52.2484 30.5174 52.1355 30.5738 52.0226L30.6491 51.8344C30.7055 51.7215 30.762 51.5898 30.8184 51.4393C30.8372 51.3641 30.8561 51.2888 30.8561 51.2136C31.4393 49.238 31.2135 47.4318 30.1787 46.1336C29.3133 45.0423 27.9962 44.4403 26.4722 44.4403C26.1712 44.4403 25.8514 44.4591 25.5315 44.5155C22.2389 45.0235 19.1721 47.8834 17.1025 52.3989C14.6754 50.7996 13.2267 47.9962 13.2267 44.8166C13.2267 41.6369 14.4685 39.0781 17.0085 36.952C19.6613 34.8072 22.54 33.7724 25.7573 33.7724C27.5635 33.7724 29.3133 34.111 30.9501 34.7695C31.1383 34.9012 31.3641 34.9953 31.5898 35.0329C32.6435 35.5221 33.6406 36.1618 34.5814 36.952C37.1402 39.0216 38.4384 41.7121 38.4384 44.9671C38.4384 47.7516 37.9304 50.3104 36.9144 52.5494L31.5522 64.6096C31.2324 65.4186 31.2135 66.0207 31.4958 66.4346C31.7215 66.7733 32.1355 66.9614 32.6999 66.9614C33.5654 66.9614 34.3368 66.4158 34.8824 65.3998L38.7394 56.3311C42.3518 48.4102 48.0527 43.2738 53.2832 43.2738C56.0301 43.2738 57.7987 44.7789 57.7987 47.112C57.7987 48.0151 57.6293 48.937 57.3095 49.8589L53.6971 57.5917C53.0198 59.0028 52.6811 60.3575 52.6811 61.7498C52.6811 65.174 54.6943 66.9802 58.5136 66.9802C60.6961 66.9802 62.634 66.0583 64.2897 64.2709C64.3462 64.1957 64.4214 64.1204 64.4779 64.064C65.3622 65.9266 67.413 66.9991 70.1787 66.9991C72.3424 66.9991 74.318 66.0207 76.0489 64.0828C76.8579 66.0207 78.683 66.9991 81.5052 66.9991C83.6877 66.9991 85.6256 66.0771 87.2813 64.2897C87.3565 64.2145 87.4318 64.1204 87.507 64.0452C88.3913 65.9266 90.4421 66.9991 93.2079 66.9991C94.0546 66.9991 94.8636 66.8485 95.6726 66.5287L93.4901 71.3264L93.302 71.7027C92.8504 72.6435 92.6999 72.9445 92.2483 73.5466C91.571 73.2079 90.8749 72.8692 90.1975 72.5306C88.9182 71.8909 87.5823 71.2512 86.2465 70.6115C86.0207 70.4986 85.7761 70.4421 85.5315 70.4421C84.873 70.4421 84.2709 70.8184 83.9887 71.4205C83.5936 72.2672 83.9511 73.2832 84.7977 73.6971C86.1336 74.318 87.4882 74.9953 88.6924 75.5785C94.5061 78.4384 100.508 81.4111 106.171 81.4111C107.112 81.4111 107.883 80.6397 107.883 79.699C107.883 78.7582 107.112 77.9868 106.171 77.9868C102.484 77.9868 98.5513 76.444 95.1834 74.9012C95.8043 74.0169 96.0489 73.5089 96.6133 72.3236L96.8956 71.7404L110.198 42.6717C110.63 41.5428 110.047 40.7338 109.332 40.4516C109.125 40.3763 108.918 40.3387 108.711 40.3387C108.034 40.3387 107.469 40.7338 107.187 41.3923L99.7742 57.6858C97.8551 61.825 95.6538 63.9135 93.2643 63.9135C90.6491 63.9135 90.3104 62.7469 90.3104 61.7121C90.3104 61.0912 90.5738 60.1882 91.0818 59.0028L98.5889 42.6905C99.0216 41.5616 98.4384 40.7526 97.7234 40.4704C97.5165 40.3951 97.3095 40.3387 97.0837 40.3387C96.4064 40.3387 95.842 40.7338 95.5597 41.3923L88.0715 57.667C87.9398 57.9304 87.8457 58.175 87.7328 58.4196C85.9454 62.0508 83.857 63.8946 81.5428 63.8946C79.793 63.8946 78.9652 63.2173 78.9652 61.7686C78.9652 61.1477 79.2098 60.2822 79.7554 58.9652L87.1872 42.6529C87.6199 41.524 87.0367 40.715 86.3217 40.4327C86.1148 40.3575 85.9078 40.301 85.7008 40.301C85.0235 40.301 84.4591 40.6961 84.1769 41.3547L83.8382 42.0508C82.841 40.6209 81.2606 39.9247 79.0028 39.9247C75.127 39.9247 72.0602 42.5212 69.6331 47.8645L65.0611 57.6294C64.8918 57.9868 64.7225 58.3631 64.5908 58.7394C62.841 62.1449 60.809 63.8758 58.5701 63.8758C56.8203 63.8758 55.9925 63.1985 55.9925 61.7498C55.9925 61.1289 56.2371 60.2634 56.7827 58.9464L60.5456 50.8749C61.1289 49.6143 61.4111 48.2785 61.4111 46.7733C61.4111 42.8598 58.0056 39.9059 53.4901 39.9059C49.9341 39.9059 45.381 42.333 41.7686 46.1524C41.7686 45.7949 41.7686 45.4186 41.7686 44.9859C41.7686 40.715 40.1693 37.3095 36.8579 34.5626C36.2182 34.0169 35.5033 33.4901 34.7695 33.0386C46.7356 21.4864 62.4647 14.9953 79.0969 14.7507C79.4167 14.7507 79.7366 14.7507 80.0376 14.7507C81.7498 14.7507 83.556 14.826 85.381 14.9765C85.0047 15.6726 85.3057 15.0894 84.7601 16.0301C81.1289 22.3895 77.0085 29.5955 83.2173 35.8043C83.5183 36.1054 83.9699 36.2935 84.4214 36.2935C84.873 36.2935 85.3245 36.1242 85.6256 35.8043C85.9454 35.4845 86.1336 35.0517 86.1336 34.6002C86.1336 34.1486 85.9642 33.7159 85.6256 33.3961C81.2606 29.031 84.4026 23.5372 87.714 17.7234C88.4102 16.5193 88.3725 16.6322 89.031 15.3904C120.64 19.7742 144.817 47.1119 145.287 79.0216C145.456 89.953 142.86 100.828 137.78 110.442C136.519 109.991 135.165 109.765 133.735 109.765C130.085 109.765 126.943 111.326 125.343 113.923C125.212 114.055 125.118 114.167 125.042 114.318C123.725 116.82 124.497 118.627 125.08 119.454C126.04 120.828 127.752 121.618 129.802 121.618C130.141 121.618 130.48 121.599 130.818 121.562C134.262 121.129 137.366 118.739 139.379 115.014C141.242 116.651 142.295 119.116 142.295 121.806C142.295 124.986 141.054 127.545 138.495 129.671C135.842 131.816 132.963 132.85 129.746 132.85C125.23 132.85 122.07 130.63 120.922 129.671C118.363 127.601 117.065 124.911 117.065 121.656C117.046 118.852 117.554 116.294 118.57 114.036ZM26.0395 47.8645C26.1712 47.8457 26.3217 47.8269 26.4534 47.8269C26.9238 47.8269 27.3001 47.9774 27.507 48.222C27.8833 48.6924 27.8457 49.6519 27.413 50.7244C26.397 52.6999 24.5155 53.6783 21.7874 53.6783C21.2982 53.6783 20.809 53.6406 20.301 53.5466C22.1261 49.746 24.4591 48.1091 26.0395 47.8645ZM67.2248 61.6745C67.2248 61.0536 67.4882 60.1505 68.015 58.9464L72.4365 49.4826C74.3556 45.1929 76.5569 43.0292 78.9464 43.0292C81.5616 43.0292 81.9003 44.1957 81.9003 45.2305C81.9003 45.7949 81.6557 46.6604 81.1101 47.9586L76.3123 58.3819C74.5061 62.0696 72.4929 63.8758 70.1599 63.8758C67.5447 63.857 67.2248 62.6905 67.2248 61.6745ZM130.367 118.156C130.16 118.175 129.972 118.194 129.765 118.194C128.881 118.194 128.166 117.93 127.865 117.498C127.676 117.215 127.658 116.801 127.846 116.312L127.865 116.294C127.883 116.256 127.921 116.218 127.94 116.162C128.918 114.017 130.856 112.926 133.716 112.926C134.638 112.926 135.541 113.057 136.406 113.34C134.243 117.366 131.251 118.043 130.367 118.156Z" fill="#022B21"/>
</svg>
