<svg width="100" height="100" viewBox="0 0 100 100" fill="none" xmlns="http://www.w3.org/2000/svg">
<circle cx="50" cy="50" r="50" fill="#022B21"/>
<path d="M31.4223 55.0547C31.4223 57.9007 29.1467 60.2843 24.6134 60.2843C20.1867 60.2843 18 58.2743 18 56.033C18 55.0191 18.5689 54.6634 19.1378 54.6634C19.8133 54.6634 20.1156 55.0013 20.1156 55.8018C20.1156 58.7901 21.7334 59.7329 24.7378 59.7329C28.5245 59.7329 29.7334 57.8474 29.7334 56.0152C29.7334 54.2365 28.8623 53.5605 25.2712 52.2976L22.6222 51.3904C20.24 50.5188 18.8 49.1848 18.8 46.57C18.8 43.6528 21.1822 41.4293 25.2712 41.4293C28.9867 41.4293 31.1379 43.0124 31.1379 45.5561C31.1379 46.5344 30.6401 46.7301 30.0712 46.7301C29.3956 46.7301 29.0578 46.3921 29.0578 45.5916C29.0578 42.9057 27.8845 41.963 25.1289 41.963C22.1422 41.963 20.4711 43.3326 20.4711 45.5916C20.4711 47.3704 21.5378 48.0463 24.4889 49.1136L27.4756 50.1809C29.9467 50.9991 31.4223 52.1019 31.4223 55.0547Z" fill="white"/>
<path d="M36.4176 42.532H33.502C33.3954 42.532 33.342 42.4964 33.342 42.3007C33.342 42.1051 33.4132 42.0695 33.5376 42.0695C35.3509 41.9628 36.3287 41.5714 36.7909 41.2335C37.5554 40.6998 37.9643 39.6148 38.3732 37.3024C38.4087 37.1067 38.5332 37 38.7465 37C38.9421 37 39.0487 37.0356 39.0843 37.1067C39.1199 37.1779 39.1199 37.338 39.1199 37.4091V41.9094H43.0132C43.1732 41.9094 43.2443 41.9806 43.2443 42.2118C43.2443 42.443 43.1732 42.5142 43.0132 42.5142H39.1199V55.9439C39.1199 56.7799 39.191 57.8827 39.3154 58.3986C39.5465 59.3413 40.2932 59.6082 41.0576 59.6082C41.6621 59.6082 42.3021 59.4125 42.7999 59.0745C43.2088 58.7721 43.4754 58.5053 43.7777 58.0606C43.8488 57.9539 43.9377 57.865 44.0443 57.865C44.151 57.865 44.311 57.9361 44.311 58.0962C44.311 58.2029 44.1154 58.5053 43.8488 58.8077C42.9777 59.7505 41.8399 60.2129 40.2932 60.2129C38.3554 60.2129 36.8087 59.4125 36.5065 57.2246C36.3998 56.4597 36.3998 55.4458 36.3998 54.6454V42.532H36.4176Z" fill="white"/>
<path d="M51.991 60.284C47.9021 60.284 46.0532 58.1317 46.0532 55.2501C46.0532 53.4002 46.8888 52.2973 48.3288 51.6214C49.6444 51.0166 52.1155 50.6431 57.1466 50.6431V47.4413C57.1466 44.8976 56.9511 43.9549 56.6844 43.4213C56.0799 42.2117 54.9422 41.9449 53.4666 41.9449C52.1866 41.9449 51.0133 42.2829 50.3732 42.7809C49.3955 43.5458 49.271 44.4885 49.271 46.3384C49.271 47.1745 48.7732 47.4769 48.1332 47.4769C47.5288 47.4769 47.0666 47.21 47.0666 46.374C47.0666 44.1861 49.0755 41.4113 53.8755 41.4113C56.72 41.4113 58.4088 42.4785 59.2089 43.9905C59.5822 44.7553 59.8133 45.6981 59.8133 47.2456C59.8133 49.1311 59.7422 56.4419 59.7422 57.1178C59.7422 58.8966 60.1155 59.4658 61.1822 59.4658C61.8222 59.4658 62.1955 59.2701 62.5867 58.861C62.6933 58.7009 62.8178 58.5942 62.96 58.5942C63.0667 58.5942 63.2267 58.7009 63.2267 58.861C63.2267 58.9677 63.12 59.1278 62.9244 59.2701C62.3555 59.7326 61.4844 60.1061 60.4711 60.1061C57.8933 60.1061 57.2177 58.8966 57.1111 57.0111C56.2933 59.11 54.2844 60.284 51.991 60.284ZM56.0977 51.07C53.3422 51.07 51.3333 51.3368 50.3555 51.8704C49.3421 52.404 48.7377 53.3824 48.7377 55.2679C48.7377 58.0605 50.0177 59.6259 52.2933 59.6259C54.8355 59.6259 56.0799 58.3096 56.7555 56.5308C57.0222 55.8193 57.1288 54.2184 57.1288 53.08V51.1233C56.8622 51.07 56.4888 51.07 56.0977 51.07Z" fill="white"/>
<path d="M71.245 59.7859C70.9428 59.7859 70.7117 59.7504 70.5695 59.3768L64.7739 44.951C64.1339 43.3679 63.9028 42.941 63.6005 42.7097C63.2628 42.4785 62.8005 42.3718 62.0183 42.3718C61.9116 42.3718 61.8228 42.3718 61.8228 42.1405C61.8228 41.9449 61.8939 41.9093 62.0539 41.9093C62.6583 41.9093 64.4005 41.9449 65.7161 41.9449C67.3339 41.9449 68.8095 41.9093 69.8761 41.9093C70.0361 41.9093 70.0717 41.9449 70.0717 42.1405C70.0717 42.3362 70.0361 42.3718 69.8406 42.3718C69.2361 42.3718 68.6317 42.4074 68.2228 42.4429C67.3872 42.5141 67.2094 42.7809 67.2094 43.2434C67.2094 43.5458 67.3161 43.8837 67.7428 44.9866C70.9961 53.2045 71.7961 55.2501 72.7384 57.8115C73.6095 55.4279 74.1784 54.0227 77.3073 45.5914C77.5384 44.951 77.7695 44.1861 77.7695 43.6169C77.7695 43.2078 77.5384 42.9054 77.0051 42.6742C76.6317 42.5141 75.9917 42.4074 75.3873 42.3718C75.1917 42.3718 75.1562 42.3006 75.1562 42.1405C75.1562 41.9449 75.2273 41.9093 75.3873 41.9093C76.0273 41.9093 77.574 41.9449 78.4451 41.9449C79.3873 41.9449 80.2584 41.9093 81.1651 41.9093C81.3606 41.9093 81.3962 41.9449 81.3962 42.1405C81.3962 42.3718 81.3251 42.3718 81.2006 42.3718C80.4006 42.4785 80.0273 42.6386 79.5828 43.0121C79.2095 43.3145 78.7473 43.9905 78.2673 45.3601C76.3828 50.2873 75.3517 53.0088 72.6673 59.697C70.5161 65.1045 69.8228 66.652 68.045 68.1284C67.245 68.7687 66.3739 69 65.6628 69C64.685 69 64.045 68.5908 64.045 67.7548C64.045 67.0789 64.3828 66.6164 65.1828 66.6164C65.8228 66.6164 66.125 67.0255 66.8006 67.0255C68.3472 67.0255 69.5206 65.7804 71.7961 59.7504H71.245V59.7859Z" fill="white"/>
<path d="M80.7554 59.9639C80.0621 59.9639 79.511 59.4481 79.511 58.7543C79.511 58.0251 80.0621 57.4736 80.7554 57.4736C81.5554 57.4736 81.9999 58.0251 81.9999 58.7543C81.9999 59.4659 81.5554 59.9639 80.7554 59.9639Z" fill="white"/>
</svg>
